<svg width="60" height="60" viewBox="0 0 60 60" fill="none" xmlns="http://www.w3.org/2000/svg">
<path d="M1.6773 1.6773C2.7516 0.603325 4.20846 0 5.72752 0C7.24658 0 8.70345 0.603325 9.77775 1.6773L30.0346 21.9341L50.2914 1.6773C51.3719 0.633761 52.819 0.0563362 54.321 0.0693887C55.8231 0.0824412 57.2599 0.684927 58.3221 1.74708C59.3842 2.80924 59.9867 4.24608 59.9998 5.74814C60.0128 7.2502 59.4354 8.69729 58.3919 9.77775L38.135 30.0346L58.3919 50.2914C59.4354 51.3719 60.0128 52.819 59.9998 54.321C59.9867 55.8231 59.3842 57.2599 58.3221 58.3221C57.2599 59.3842 55.8231 59.9867 54.321 59.9998C52.819 60.0128 51.3719 59.4354 50.2914 58.3919L30.0346 38.135L9.77775 58.3919C8.69729 59.4354 7.2502 60.0128 5.74814 59.9998C4.24608 59.9867 2.80924 59.3842 1.74708 58.3221C0.684927 57.2599 0.0824412 55.8231 0.0693887 54.321C0.0563362 52.819 0.633761 51.3719 1.6773 50.2914L21.9341 30.0346L1.6773 9.77775C0.603325 8.70345 0 7.24658 0 5.72752C0 4.20846 0.603325 2.7516 1.6773 1.6773V1.6773Z" fill="#88C070"/>
</svg>
