<svg width="92" height="92" viewBox="0 0 92 92" fill="none" xmlns="http://www.w3.org/2000/svg">
<path d="M80.1086 35.0737C79.5706 32.5554 78.5467 30.1661 77.0942 28.0397C75.6414 25.9077 73.7925 24.0748 71.6481 22.6404C69.4253 21.1491 66.9283 20.1142 64.3023 19.5958C60.6198 18.86 56.8254 19.1505 53.3226 20.4314C52.4846 20.7378 51.675 21.0964 50.8938 21.5074C50.3305 20.8278 49.7209 20.1855 49.065 19.5806C46.3233 17.0521 42.9319 15.3258 39.2494 14.59C36.5977 14.0601 33.9267 14.0547 31.2976 14.578C28.7582 15.0804 26.3652 16.0548 24.1949 17.4699C22.0348 18.8724 20.171 20.6852 18.7089 22.8054C17.1886 25.0106 16.1463 27.4667 15.6195 30.1035C15.1225 32.5908 15.1125 35.2843 15.5941 38.1225C15.9978 40.4947 16.7512 43.0221 17.8362 45.6392C19.5564 49.7813 22.164 54.2639 25.5753 58.9614C31.228 66.7478 37.2089 72.5414 37.4644 72.7789L39.0079 74.268C39.6922 74.9252 40.7006 75.1266 41.5849 74.7829L43.582 74.0012C43.9106 73.8727 51.6497 70.8283 59.868 65.8134C64.8225 62.7875 68.9525 59.6511 72.1323 56.4881C74.1397 54.4889 75.8139 52.4465 77.0908 50.4102C78.626 47.9749 79.6519 45.4845 80.1489 42.9971C80.6832 40.3618 80.6648 37.6938 80.1086 35.0737Z" fill="#88c070"/>
</svg>
