<svg width="60" height="48" viewBox="0 0 60 48" fill="none" xmlns="http://www.w3.org/2000/svg">
<path d="M0 3.75C0 2.75544 0.395088 1.80161 1.09835 1.09835C1.80161 0.395088 2.75544 0 3.75 0H56.25C57.2446 0 58.1984 0.395088 58.9016 1.09835C59.6049 1.80161 60 2.75544 60 3.75C60 4.74456 59.6049 5.69839 58.9016 6.40165C58.1984 7.10491 57.2446 7.5 56.25 7.5H3.75C2.75544 7.5 1.80161 7.10491 1.09835 6.40165C0.395088 5.69839 0 4.74456 0 3.75ZM0 23.75C0 22.7554 0.395088 21.8016 1.09835 21.0983C1.80161 20.3951 2.75544 20 3.75 20H56.25C57.2446 20 58.1984 20.3951 58.9016 21.0983C59.6049 21.8016 60 22.7554 60 23.75C60 24.7446 59.6049 25.6984 58.9016 26.4016C58.1984 27.1049 57.2446 27.5 56.25 27.5H3.75C2.75544 27.5 1.80161 27.1049 1.09835 26.4016C0.395088 25.6984 0 24.7446 0 23.75ZM0 43.75C0 42.7554 0.395088 41.8016 1.09835 41.0984C1.80161 40.3951 2.75544 40 3.75 40H56.25C57.2446 40 58.1984 40.3951 58.9016 41.0984C59.6049 41.8016 60 42.7554 60 43.75C60 44.7446 59.6049 45.6984 58.9016 46.4016C58.1984 47.1049 57.2446 47.5 56.25 47.5H3.75C2.75544 47.5 1.80161 47.1049 1.09835 46.4016C0.395088 45.6984 0 44.7446 0 43.75Z" fill="#88c070"/>
</svg>
